<svg width="36" height="36" viewBox="0 0 36 36" fill="none" xmlns="http://www.w3.org/2000/svg">
<path d="M31.5 0C33.9853 0 36 2.01472 36 4.5V31.5C36 33.9853 33.9853 36 31.5 36H4.5C2.01472 36 0 33.9853 0 31.5V4.5C0 2.01472 2.01472 0 4.5 0H31.5ZM23.6836 10.5674C23.7721 10.756 23.8174 10.9457 23.8174 11.1318C23.8172 11.8221 23.2065 12.5231 22.1416 13.0557C20.9636 13.6451 19.387 13.9687 17.7031 13.9688C16.0192 13.9688 14.4427 13.6443 13.2646 13.0557C12.1996 12.5231 11.5881 11.8221 11.5879 11.1318C11.5879 11.0175 11.6063 10.899 11.6396 10.7812L12.0625 9.31348L10.9238 10.332C10.2009 10.9781 9.81848 11.729 9.81836 12.502C9.81836 12.8288 9.88726 13.1455 10.0146 13.4492L9.21484 14.2178C8.3383 15.0576 7.875 16.0255 7.875 17.0156C7.87513 18.4503 8.81738 19.7855 10.5391 20.8047C10.148 21.3771 9.94434 21.9973 9.94434 22.6299C9.94434 23.9682 10.8284 25.2017 12.4346 26.1025C13.9545 26.955 15.9666 27.4238 18.1006 27.4238C20.2345 27.4238 22.2467 26.955 23.7666 26.1025C25.3728 25.2017 26.2568 23.9682 26.2568 22.6299C26.2568 21.8994 25.9905 21.1975 25.4814 20.5605C26.9581 19.5758 27.7616 18.3387 27.7617 17.0156C27.7617 15.8526 27.1378 14.7453 25.959 13.8145L25.5947 13.5264C25.744 13.1993 25.8242 12.8566 25.8242 12.502C25.8241 11.5964 25.3128 10.741 24.3447 10.0273L22.9492 9L23.6836 10.5674ZM24.3057 21.2217C24.2239 21.9855 23.6 22.7442 22.5625 23.3262C21.3448 24.0091 19.7166 24.3847 17.9795 24.3848C16.2415 24.3848 14.6142 24.0091 13.3965 23.3262C12.43 22.7842 11.8219 22.0889 11.6768 21.3789C13.417 22.1333 15.5614 22.5449 17.8184 22.5449C20.2272 22.5449 22.5079 22.0761 24.3057 21.2217ZM10.1768 13.7773C11.1792 15.5023 14.1801 16.7236 17.8213 16.7236C21.189 16.7236 24.0092 15.6788 25.207 14.1572L25.2852 14.3359C25.4062 14.613 25.4687 14.8937 25.4688 15.1699C25.4688 16.1784 24.6948 17.1493 23.2881 17.9023C21.7954 18.7021 19.8006 19.1416 17.6709 19.1416C15.5421 19.1416 13.5473 18.7021 12.0537 17.9023C10.6478 17.1493 9.87305 16.1785 9.87305 15.1699C9.87308 14.9998 9.89668 14.8245 9.94336 14.6494L10.1768 13.7773Z" fill="#009088"/>
</svg>
