<svg width="16" height="17" viewBox="0 0 16 17" fill="none" xmlns="http://www.w3.org/2000/svg">
<path d="M10.6875 8.4375C10.2733 8.4375 9.9375 8.77329 9.9375 9.1875C9.9375 9.60171 10.2733 9.9375 10.6875 9.9375C11.1017 9.9375 11.4375 9.60171 11.4375 9.1875C11.4375 8.77329 11.1017 8.4375 10.6875 8.4375Z" fill="#525252"/>
<path d="M6.9375 9.1875C6.9375 8.77329 7.27329 8.4375 7.6875 8.4375C8.10171 8.4375 8.4375 8.77329 8.4375 9.1875C8.4375 9.60171 8.10171 9.9375 7.6875 9.9375C7.27329 9.9375 6.9375 9.60171 6.9375 9.1875Z" fill="#525252"/>
<path d="M4.6875 8.4375C4.27329 8.4375 3.9375 8.77329 3.9375 9.1875C3.9375 9.60171 4.27329 9.9375 4.6875 9.9375C5.10171 9.9375 5.4375 9.60171 5.4375 9.1875C5.4375 8.77329 5.10171 8.4375 4.6875 8.4375Z" fill="#525252"/>
<path d="M6.9375 12.1875C6.9375 11.7733 7.27329 11.4375 7.6875 11.4375C8.10171 11.4375 8.4375 11.7733 8.4375 12.1875C8.4375 12.6017 8.10171 12.9375 7.6875 12.9375C7.27329 12.9375 6.9375 12.6017 6.9375 12.1875Z" fill="#525252"/>
<path d="M4.6875 11.4375C4.27329 11.4375 3.9375 11.7733 3.9375 12.1875C3.9375 12.6017 4.27329 12.9375 4.6875 12.9375C5.10171 12.9375 5.4375 12.6017 5.4375 12.1875C5.4375 11.7733 5.10171 11.4375 4.6875 11.4375Z" fill="#525252"/>
<path fill-rule="evenodd" clip-rule="evenodd" d="M4.6875 0C4.99816 0 5.25 0.25184 5.25 0.5625V1.125H10.125V0.5625C10.125 0.25184 10.3768 0 10.6875 0C10.9982 0 11.25 0.25184 11.25 0.5625V1.125H12.1875C13.9479 1.125 15.375 2.55209 15.375 4.3125V12.9376C15.375 14.698 13.9479 16.1251 12.1875 16.1251H3.1875C1.42709 16.1251 0 14.698 0 12.9376V4.3125C0 2.55209 1.42709 1.125 3.1875 1.125H4.125V0.5625C4.125 0.25184 4.37684 0 4.6875 0ZM14.25 4.3125V5.25H1.125V4.3125C1.125 3.17341 2.04841 2.25 3.1875 2.25H4.125V2.8125C4.125 3.12316 4.37684 3.375 4.6875 3.375C4.99816 3.375 5.25 3.12316 5.25 2.8125V2.25H10.125V2.8125C10.125 3.12316 10.3768 3.375 10.6875 3.375C10.9982 3.375 11.25 3.12316 11.25 2.8125V2.25H12.1875C13.3266 2.25 14.25 3.17341 14.25 4.3125ZM14.25 6.375H1.125V12.9376C1.125 14.0767 2.04841 15.0001 3.1875 15.0001H12.1875C13.3266 15.0001 14.25 14.0767 14.25 12.9376V6.375Z" fill="#525252"/>
</svg>
