<svg width="22" height="21" viewBox="0 0 22 21" fill="none" xmlns="http://www.w3.org/2000/svg">
<path fill-rule="evenodd" clip-rule="evenodd" d="M10.75 6.5C13.3734 6.5 15.5 8.62665 15.5 11.25C15.5 13.8734 13.3734 16 10.75 16C8.12665 16 6 13.8734 6 11.25C6 8.62665 8.12665 6.5 10.75 6.5ZM14 11.25C14 9.45507 12.5449 8 10.75 8C8.95507 8 7.5 9.45507 7.5 11.25C7.5 13.0449 8.95507 14.5 10.75 14.5C12.5449 14.5 14 13.0449 14 11.25Z" fill="#41416E"/>
<path fill-rule="evenodd" clip-rule="evenodd" d="M8.98607 0C7.94445 0 6.99222 0.588506 6.52639 1.52016L6.13197 2.30902C5.92023 2.7325 5.4874 3 5.01393 3H4.25C1.90279 3 0 4.90279 0 7.25V16.25C0 18.5972 1.90279 20.5 4.25 20.5H17.25C19.5972 20.5 21.5 18.5972 21.5 16.25V7.25C21.5 4.90279 19.5972 3 17.25 3H16.4861C16.0126 3 15.5798 2.7325 15.368 2.30902L14.9736 1.52016C14.5078 0.588507 13.5556 0 12.5139 0H8.98607ZM7.86803 2.19098C8.07977 1.7675 8.5126 1.5 8.98607 1.5H12.5139C12.9874 1.5 13.4202 1.7675 13.632 2.19098L14.0264 2.97984C14.4922 3.91149 15.4444 4.5 16.4861 4.5H17.25C18.7688 4.5 20 5.73122 20 7.25V16.25C20 17.7688 18.7688 19 17.25 19H4.25C2.73122 19 1.5 17.7688 1.5 16.25V7.25C1.5 5.73122 2.73122 4.5 4.25 4.5H5.01393C6.05556 4.5 7.00778 3.91149 7.47361 2.97984L7.86803 2.19098Z" fill="#41416E"/>
</svg>
