<svg width="20" height="20" viewBox="0 0 20 20" fill="none" xmlns="http://www.w3.org/2000/svg">
<path d="M8.33333 3.5C8.33333 2.94772 7.88562 2.5 7.33333 2.5H3.5C2.94772 2.5 2.5 2.94772 2.5 3.5V7.33333C2.5 7.88562 2.94772 8.33333 3.5 8.33333H7.33333C7.88562 8.33333 8.33333 7.88562 8.33333 7.33333V3.5Z" stroke="#525252" stroke-width="1.25" stroke-linecap="round" stroke-linejoin="round"/>
<path d="M17.5 3.5C17.5 2.94772 17.0523 2.5 16.5 2.5H12.6667C12.1144 2.5 11.6667 2.94772 11.6667 3.5V7.33333C11.6667 7.88562 12.1144 8.33333 12.6667 8.33333H16.5C17.0523 8.33333 17.5 7.88562 17.5 7.33333V3.5Z" stroke="#525252" stroke-width="1.25" stroke-linecap="round" stroke-linejoin="round"/>
<path d="M17.5 12.6667C17.5 12.1144 17.0523 11.6667 16.5 11.6667H12.6667C12.1144 11.6667 11.6667 12.1144 11.6667 12.6667V16.5C11.6667 17.0523 12.1144 17.5 12.6667 17.5H16.5C17.0523 17.5 17.5 17.0523 17.5 16.5V12.6667Z" stroke="#525252" stroke-width="1.25" stroke-linecap="round" stroke-linejoin="round"/>
<path d="M8.33333 12.6667C8.33333 12.1144 7.88562 11.6667 7.33333 11.6667H3.5C2.94772 11.6667 2.5 12.1144 2.5 12.6667V16.5C2.5 17.0523 2.94772 17.5 3.5 17.5H7.33333C7.88562 17.5 8.33333 17.0523 8.33333 16.5V12.6667Z" stroke="#525252" stroke-width="1.25" stroke-linecap="round" stroke-linejoin="round"/>
</svg>
