<svg width="20" height="20" viewBox="0 0 20 20" fill="none" xmlns="http://www.w3.org/2000/svg">
<g clip-path="url(#clip0_4123_10896)">
<path d="M4.99935 14.3752C4.65417 14.3752 4.37435 14.655 4.37435 15.0002C4.37435 15.3454 4.65417 15.6252 4.99935 15.6252H8.33268C8.67786 15.6252 8.95768 15.3454 8.95768 15.0002C8.95768 14.655 8.67786 14.3752 8.33268 14.3752H4.99935Z" fill="#525252"/>
<path d="M14.5827 12.9169C15.0429 12.9169 15.416 12.5438 15.416 12.0835C15.416 11.6233 15.0429 11.2502 14.5827 11.2502C14.1224 11.2502 13.7493 11.6233 13.7493 12.0835C13.7493 12.5438 14.1224 12.9169 14.5827 12.9169Z" fill="#525252"/>
<path fill-rule="evenodd" clip-rule="evenodd" d="M4.12787 5.23748L10.3326 1.65518C10.6179 1.49043 10.8641 1.34831 11.0764 1.24782C11.3005 1.14176 11.5356 1.05748 11.8006 1.04359C12.196 1.02286 12.5879 1.12785 12.92 1.34351C13.1426 1.48806 13.304 1.67861 13.4451 1.88251C13.5787 2.07568 13.7208 2.32183 13.8855 2.60715L15.449 5.31528C16.9862 5.70177 18.1243 7.09308 18.1243 8.75021V9.54893C18.6195 9.80662 18.9577 10.3245 18.9577 10.9213V13.2458C18.9577 13.8426 18.6195 14.3605 18.1243 14.6182V15.4169C18.1243 17.3729 16.5387 18.9585 14.5827 18.9585H4.58268C2.62667 18.9585 1.04102 17.3729 1.04102 15.4169V8.75021C1.04102 6.94831 2.38667 5.46069 4.12787 5.23748ZM11.8661 2.29187C11.9979 2.28497 12.1285 2.31996 12.2392 2.39185C12.2682 2.41074 12.3201 2.45348 12.417 2.59358C12.5181 2.73971 12.6349 2.94097 12.815 3.25304L13.944 5.20855H6.67798L10.9367 2.74975C11.2488 2.56958 11.4506 2.45366 11.6111 2.37765C11.7651 2.30477 11.8314 2.29369 11.8661 2.29187ZM16.8743 8.75021V9.37521H14.5827C13.0869 9.37521 11.8743 10.5878 11.8743 12.0835C11.8743 13.5793 13.0869 14.7919 14.5827 14.7919H16.8743V15.4169C16.8743 16.6825 15.8483 17.7085 14.5827 17.7085H4.58268C3.31703 17.7085 2.29102 16.6825 2.29102 15.4169V8.75021C2.29102 7.48456 3.31703 6.45855 4.58268 6.45855H14.5827C15.8483 6.45855 16.8743 7.48456 16.8743 8.75021ZM14.5827 10.6252C13.7773 10.6252 13.1243 11.2781 13.1243 12.0835C13.1243 12.889 13.7773 13.5419 14.5827 13.5419H17.4116C17.5751 13.5419 17.7077 13.4093 17.7077 13.2458V10.9213C17.7077 10.7578 17.5751 10.6252 17.4116 10.6252H14.5827Z" fill="#525252"/>
</g>
<defs>
<clipPath id="clip0_4123_10896">
<rect width="20" height="20" fill="white"/>
</clipPath>
</defs>
</svg>
