<svg width="20" height="20" viewBox="0 0 20 20" fill="none" xmlns="http://www.w3.org/2000/svg">
<g clip-path="url(#clip0_4123_10866)">
<path d="M9.11646 6.28901C9.15852 5.9464 9.47036 5.70277 9.81297 5.74483L12.7256 6.10245C13.0682 6.14452 13.3118 6.45636 13.2697 6.79896C13.2277 7.14157 12.9158 7.3852 12.5732 7.34314L9.66063 6.98552C9.31802 6.94345 9.07439 6.63161 9.11646 6.28901Z" fill="#525252"/>
<path d="M8.70775 9.61769C8.74981 9.27508 9.06165 9.03145 9.40425 9.07351L14.3973 9.68657C14.7399 9.72864 14.9835 10.0405 14.9414 10.3831C14.8994 10.7257 14.5875 10.9693 14.2449 10.9273L9.25192 10.3142C8.90931 10.2721 8.66568 9.96029 8.70775 9.61769Z" fill="#525252"/>
<path d="M8.29904 12.9464C8.3411 12.6038 8.65294 12.3601 8.99554 12.4022L13.9886 13.0153C14.3312 13.0573 14.5748 13.3692 14.5327 13.7118C14.4907 14.0544 14.1788 14.298 13.8362 14.2559L8.84321 13.6429C8.5006 13.6008 8.25697 13.289 8.29904 12.9464Z" fill="#525252"/>
<path fill-rule="evenodd" clip-rule="evenodd" d="M6.04304 3.79987C6.2544 2.07848 7.8212 0.854361 9.54259 1.06572L16.2 1.88314C17.9213 2.0945 19.1455 3.66131 18.9341 5.38269L17.6058 16.2009C17.3944 17.9223 15.8276 19.1464 14.1062 18.9351L7.44888 18.1176C6.60063 18.0135 5.87314 17.5802 5.37864 16.9615C3.69867 17.1261 2.18944 15.9153 1.98328 14.2293L1.06451 6.71512C0.855198 5.00324 2.06746 3.44092 3.77831 3.22997C4.12089 3.18773 4.43285 3.4312 4.47509 3.77379C4.51733 4.11637 4.27386 4.42833 3.93127 4.47057C2.90984 4.59652 2.1791 5.53154 2.30527 6.56341L3.22404 14.0776C3.32761 14.9246 3.97564 15.5677 4.76947 15.7008C4.69044 15.3552 4.66903 14.9903 4.71473 14.6181L6.04304 3.79987ZM9.39025 2.3064C8.35408 2.17918 7.41095 2.91603 7.28372 3.95221L5.95541 14.7704C5.82819 15.8066 6.56504 16.7497 7.60122 16.877L14.2586 17.6944C15.2948 17.8216 16.2379 17.0847 16.3651 16.0486L17.6934 5.23036C17.8206 4.19418 17.0838 3.25105 16.0476 3.12383L9.39025 2.3064Z" fill="#525252"/>
</g>
<defs>
<clipPath id="clip0_4123_10866">
<rect width="20" height="20" fill="white"/>
</clipPath>
</defs>
</svg>
