<svg width="18" height="22" viewBox="0 0 18 22" fill="none" xmlns="http://www.w3.org/2000/svg">
<path fill-rule="evenodd" clip-rule="evenodd" d="M9.5 15.372C10.3739 15.0631 11 14.2297 11 13.25C11 12.0074 9.99264 11 8.75 11C7.50736 11 6.5 12.0074 6.5 13.25C6.5 14.2297 7.12611 15.0631 8 15.372V16.75C8 17.1642 8.33579 17.5 8.75 17.5C9.16421 17.5 9.5 17.1642 9.5 16.75V15.372ZM8.75 12.5C8.33579 12.5 8 12.8358 8 13.25C8 13.6642 8.33579 14 8.75 14C9.16421 14 9.5 13.6642 9.5 13.25C9.5 12.8358 9.16421 12.5 8.75 12.5Z" fill="#41416E"/>
<path fill-rule="evenodd" clip-rule="evenodd" d="M8.75 0C5.93599 0 3.5 2.04604 3.5 4.75L3.5 7.06597C1.51049 7.4202 0 9.1587 0 11.25V17.25C0 19.5972 1.90279 21.5 4.25 21.5H13.25C15.5972 21.5 17.5 19.5972 17.5 17.25V11.25C17.5 9.1587 15.9895 7.4202 14 7.06597V4.75C14 2.04604 11.564 0 8.75 0ZM12.5 7V4.75C12.5 3.03568 10.9066 1.5 8.75 1.5C6.59345 1.5 5 3.03568 5 4.75L5 7H12.5ZM4.25 8.5C2.73122 8.5 1.5 9.73122 1.5 11.25V17.25C1.5 18.7688 2.73122 20 4.25 20H13.25C14.7688 20 16 18.7688 16 17.25V11.25C16 9.73122 14.7688 8.5 13.25 8.5H4.25Z" fill="#41416E"/>
</svg>
