<svg width="24" height="24" viewBox="0 0 24 24" fill="none" xmlns="http://www.w3.org/2000/svg">
<path d="M12.452 9.498V14.502C12.452 14.7097 12.544 14.8519 12.728 14.9288C12.9118 15.0057 13.0775 14.9705 13.225 14.823L15.4152 12.6328C15.5961 12.4519 15.6865 12.241 15.6865 12C15.6865 11.759 15.5961 11.5481 15.4152 11.3672L13.225 9.177C13.0775 9.0295 12.9118 8.9942 12.728 9.0712C12.544 9.1481 12.452 9.2903 12.452 9.498ZM5.30775 20.5C4.80908 20.5 4.38308 20.3234 4.02975 19.9703C3.67658 19.6169 3.5 19.1909 3.5 18.6923V5.30775C3.5 4.80908 3.67658 4.38308 4.02975 4.02975C4.38308 3.67658 4.80908 3.5 5.30775 3.5H18.6923C19.1909 3.5 19.6169 3.67658 19.9703 4.02975C20.3234 4.38308 20.5 4.80908 20.5 5.30775V18.6923C20.5 19.1909 20.3234 19.6169 19.9703 19.9703C19.6169 20.3234 19.1909 20.5 18.6923 20.5H5.30775ZM8 19V5H5.30775C5.23075 5 5.16025 5.03208 5.09625 5.09625C5.03208 5.16025 5 5.23075 5 5.30775V18.6923C5 18.7692 5.03208 18.8398 5.09625 18.9038C5.16025 18.9679 5.23075 19 5.30775 19H8ZM9.5 19H18.6923C18.7692 19 18.8398 18.9679 18.9038 18.9038C18.9679 18.8398 19 18.7692 19 18.6923V5.30775C19 5.23075 18.9679 5.16025 18.9038 5.09625C18.8398 5.03208 18.7692 5 18.6923 5H9.5V19Z" fill="#262626"/>
</svg>
