<svg width="32" height="32" viewBox="0 0 32 32" fill="none" xmlns="http://www.w3.org/2000/svg">
<path d="M15.9993 16.8335C16.4596 16.8335 16.8327 16.4604 16.8327 16.0002C16.8327 15.5399 16.4596 15.1668 15.9993 15.1668C15.5391 15.1668 15.166 15.5399 15.166 16.0002C15.166 16.4604 15.5391 16.8335 15.9993 16.8335Z" stroke="#262626" stroke-width="1.5" stroke-linecap="round" stroke-linejoin="round"/>
<path d="M15.9993 11.0002C16.4596 11.0002 16.8327 10.6271 16.8327 10.1668C16.8327 9.70659 16.4596 9.3335 15.9993 9.3335C15.5391 9.3335 15.166 9.70659 15.166 10.1668C15.166 10.6271 15.5391 11.0002 15.9993 11.0002Z" stroke="#262626" stroke-width="1.5" stroke-linecap="round" stroke-linejoin="round"/>
<path d="M15.9993 22.6668C16.4596 22.6668 16.8327 22.2937 16.8327 21.8335C16.8327 21.3733 16.4596 21.0002 15.9993 21.0002C15.5391 21.0002 15.166 21.3733 15.166 21.8335C15.166 22.2937 15.5391 22.6668 15.9993 22.6668Z" stroke="#262626" stroke-width="1.5" stroke-linecap="round" stroke-linejoin="round"/>
</svg>
