<svg width="17" height="17" viewBox="0 0 17 17" fill="none" xmlns="http://www.w3.org/2000/svg">
<path d="M7.25 11.75V9.55775C7.25 9.46792 7.27883 9.39417 7.3365 9.3365C7.39417 9.27883 7.46792 9.25 7.55775 9.25H9.44225C9.94742 9.25 10.375 9.075 10.725 8.725C11.075 8.375 11.25 7.94742 11.25 7.44225V5.55775C11.25 5.05258 11.075 4.625 10.725 4.275C10.375 3.925 9.94742 3.75 9.44225 3.75H6.5C6.28717 3.75 6.109 3.82183 5.9655 3.9655C5.82183 4.109 5.75 4.28717 5.75 4.5C5.75 4.71283 5.82183 4.891 5.9655 5.0345C6.109 5.17817 6.28717 5.25 6.5 5.25H9.44225C9.53208 5.25 9.60583 5.27883 9.6635 5.3365C9.72117 5.39417 9.75 5.46792 9.75 5.55775V7.44225C9.75 7.53208 9.72117 7.60583 9.6635 7.6635C9.60583 7.72117 9.53208 7.75 9.44225 7.75H7.55775C7.05258 7.75 6.625 7.925 6.275 8.275C5.925 8.625 5.75 9.05258 5.75 9.55775V12.3463C5.75 12.6039 5.83625 12.8189 6.00875 12.9913C6.18108 13.1638 6.39608 13.25 6.65375 13.25H10.5C10.7128 13.25 10.891 13.1782 11.0345 13.0345C11.1782 12.891 11.25 12.7128 11.25 12.5C11.25 12.2872 11.1782 12.109 11.0345 11.9655C10.891 11.8218 10.7128 11.75 10.5 11.75H7.25ZM1.80775 17C1.30258 17 0.875 16.825 0.525 16.475C0.175 16.125 0 15.6974 0 15.1923V1.80775C0 1.30258 0.175 0.875 0.525 0.525C0.875 0.175 1.30258 0 1.80775 0H15.1923C15.6974 0 16.125 0.175 16.475 0.525C16.825 0.875 17 1.30258 17 1.80775V15.1923C17 15.6974 16.825 16.125 16.475 16.475C16.125 16.825 15.6974 17 15.1923 17H1.80775ZM1.80775 15.5H15.1923C15.2692 15.5 15.3398 15.4679 15.4038 15.4038C15.4679 15.3398 15.5 15.2692 15.5 15.1923V1.80775C15.5 1.73075 15.4679 1.66025 15.4038 1.59625C15.3398 1.53208 15.2692 1.5 15.1923 1.5H1.80775C1.73075 1.5 1.66025 1.53208 1.59625 1.59625C1.53208 1.66025 1.5 1.73075 1.5 1.80775V15.1923C1.5 15.2692 1.53208 15.3398 1.59625 15.4038C1.66025 15.4679 1.73075 15.5 1.80775 15.5Z" fill="#262626"/>
</svg>
