<svg width="20" height="20" viewBox="0 0 20 20" fill="none" xmlns="http://www.w3.org/2000/svg">
<g clip-path="url(#clip0_4123_10886)">
<path d="M9.37435 13.3337C9.37435 13.6788 9.65417 13.9587 9.99935 13.9587C10.3445 13.9587 10.6243 13.6788 10.6243 13.3337V6.66699C10.6243 6.32181 10.3445 6.04199 9.99935 6.04199C9.65417 6.04199 9.37435 6.32181 9.37435 6.66699V13.3337Z" fill="#525252"/>
<path d="M6.66602 13.9587C6.32084 13.9587 6.04102 13.6788 6.04102 13.3337V10.8337C6.04102 10.4885 6.32084 10.2087 6.66602 10.2087C7.01119 10.2087 7.29102 10.4885 7.29102 10.8337L7.29102 13.3337C7.29102 13.6788 7.01119 13.9587 6.66602 13.9587Z" fill="#525252"/>
<path d="M12.7077 13.3337C12.7077 13.6788 12.9875 13.9587 13.3327 13.9587C13.6779 13.9587 13.9577 13.6788 13.9577 13.3337V8.33366C13.9577 7.98848 13.6779 7.70866 13.3327 7.70866C12.9875 7.70866 12.7077 7.98848 12.7077 8.33366V13.3337Z" fill="#525252"/>
<path fill-rule="evenodd" clip-rule="evenodd" d="M4.58268 1.04199C2.62667 1.04199 1.04102 2.62765 1.04102 4.58366V15.417C1.04102 17.373 2.62667 18.9587 4.58268 18.9587H15.416C17.372 18.9587 18.9577 17.373 18.9577 15.417V4.58366C18.9577 2.62765 17.372 1.04199 15.416 1.04199H4.58268ZM2.29102 4.58366C2.29102 3.31801 3.31703 2.29199 4.58268 2.29199H15.416C16.6817 2.29199 17.7077 3.31801 17.7077 4.58366V15.417C17.7077 16.6826 16.6817 17.7087 15.416 17.7087H4.58268C3.31703 17.7087 2.29102 16.6826 2.29102 15.417V4.58366Z" fill="#525252"/>
</g>
<defs>
<clipPath id="clip0_4123_10886">
<rect width="20" height="20" fill="white"/>
</clipPath>
</defs>
</svg>
