<svg width="20" height="20" viewBox="0 0 20 20" fill="none" xmlns="http://www.w3.org/2000/svg">
<g clip-path="url(#clip0_4123_10856)">
<path d="M8.76517 6.42412C9.01436 6.66298 9.02274 7.05862 8.78388 7.30781L7.18636 8.97448C7.0699 9.09598 6.90936 9.16537 6.74106 9.16696C6.57277 9.16855 6.41094 9.1022 6.29221 8.98292L5.38973 8.07631C5.14621 7.83168 5.14712 7.43595 5.39175 7.19243C5.63639 6.94891 6.03211 6.94982 6.27563 7.19445L6.72671 7.64759L7.88148 6.44284C8.12033 6.19365 8.51597 6.18527 8.76517 6.42412Z" fill="#525252"/>
<path d="M10.416 7.08366C10.0708 7.08366 9.79102 7.36348 9.79102 7.70866C9.79102 8.05384 10.0708 8.33366 10.416 8.33366H14.166C14.5112 8.33366 14.791 8.05384 14.791 7.70866C14.791 7.36348 14.5112 7.08366 14.166 7.08366H10.416Z" fill="#525252"/>
<path d="M8.76517 11.0075C9.01436 11.2463 9.02274 11.642 8.78388 11.8911L7.18636 13.5578C7.0699 13.6793 6.90936 13.7487 6.74106 13.7503C6.57277 13.7519 6.41094 13.6855 6.29221 13.5663L5.38973 12.6596C5.14621 12.415 5.14712 12.0193 5.39175 11.7758C5.63639 11.5322 6.03211 11.5331 6.27563 11.7778L6.72671 12.2309L7.88148 11.0262C8.12033 10.777 8.51597 10.7686 8.76517 11.0075Z" fill="#525252"/>
<path d="M10.416 11.667C10.0708 11.667 9.79102 11.9468 9.79102 12.292C9.79102 12.6372 10.0708 12.917 10.416 12.917H14.166C14.5112 12.917 14.791 12.6372 14.791 12.292C14.791 11.9468 14.5112 11.667 14.166 11.667H10.416Z" fill="#525252"/>
<path fill-rule="evenodd" clip-rule="evenodd" d="M1.04102 4.58366C1.04102 2.62765 2.62667 1.04199 4.58268 1.04199H15.416C17.372 1.04199 18.9577 2.62765 18.9577 4.58366V15.417C18.9577 17.373 17.372 18.9587 15.416 18.9587H4.58268C2.62667 18.9587 1.04102 17.373 1.04102 15.417V4.58366ZM4.58268 2.29199C3.31703 2.29199 2.29102 3.31801 2.29102 4.58366V15.417C2.29102 16.6826 3.31703 17.7087 4.58268 17.7087H15.416C16.6817 17.7087 17.7077 16.6826 17.7077 15.417V4.58366C17.7077 3.31801 16.6817 2.29199 15.416 2.29199H4.58268Z" fill="#525252"/>
</g>
<defs>
<clipPath id="clip0_4123_10856">
<rect width="20" height="20" fill="white"/>
</clipPath>
</defs>
</svg>
