<svg width="20" height="20" viewBox="0 0 20 20" fill="none" xmlns="http://www.w3.org/2000/svg">
<g clip-path="url(#clip0_4123_10876)">
<path d="M6.84864 11.9231C6.10237 11.9231 5.4974 12.5258 5.4974 13.2692C5.4974 13.5879 5.23813 13.8462 4.9183 13.8462C4.59847 13.8462 4.3392 13.5879 4.3392 13.2692C4.3392 11.8885 5.46271 10.7692 6.84864 10.7692C8.23457 10.7692 9.35809 11.8885 9.35809 13.2692C9.35809 13.5879 9.09881 13.8462 8.77898 13.8462C8.45915 13.8462 8.19988 13.5879 8.19988 13.2692C8.19988 12.5258 7.59491 11.9231 6.84864 11.9231Z" fill="#525252"/>
<path fill-rule="evenodd" clip-rule="evenodd" d="M6.84864 6.15385C5.67593 6.15385 4.72527 7.10094 4.72527 8.26923C4.72527 9.43753 5.67593 10.3846 6.84864 10.3846C8.02135 10.3846 8.97202 9.43753 8.97202 8.26923C8.97202 7.10094 8.02135 6.15385 6.84864 6.15385ZM5.88347 8.26923C5.88347 7.73819 6.31559 7.30769 6.84864 7.30769C7.38169 7.30769 7.81381 7.73819 7.81381 8.26923C7.81381 8.80027 7.38169 9.23077 6.84864 9.23077C6.31559 9.23077 5.88347 8.80027 5.88347 8.26923Z" fill="#525252"/>
<path d="M10.1302 8.65385C10.1302 8.33522 10.3895 8.07692 10.7093 8.07692H14.6663C14.9862 8.07692 15.2454 8.33522 15.2454 8.65385C15.2454 8.97247 14.9862 9.23077 14.6663 9.23077H10.7093C10.3895 9.23077 10.1302 8.97247 10.1302 8.65385Z" fill="#525252"/>
<path d="M11.8675 11.1538C11.5477 11.1538 11.2884 11.4121 11.2884 11.7308C11.2884 12.0494 11.5477 12.3077 11.8675 12.3077H14.6663C14.9862 12.3077 15.2454 12.0494 15.2454 11.7308C15.2454 11.4121 14.9862 11.1538 14.6663 11.1538H11.8675Z" fill="#525252"/>
<path fill-rule="evenodd" clip-rule="evenodd" d="M1.45898 5.76923C1.45898 3.96368 2.9282 2.5 4.74056 2.5H15.2607C17.0731 2.5 18.5423 3.96368 18.5423 5.76923V14.2308C18.5423 16.0363 17.0731 17.5 15.2607 17.5H4.74056C2.9282 17.5 1.45898 16.0363 1.45898 14.2308V5.76923ZM4.74056 3.65385C3.56786 3.65385 2.61719 4.60094 2.61719 5.76923V14.2308C2.61719 15.3991 3.56786 16.3462 4.74056 16.3462H15.2607C16.4334 16.3462 17.3841 15.3991 17.3841 14.2308V5.76923C17.3841 4.60094 16.4334 3.65385 15.2607 3.65385H4.74056Z" fill="#525252"/>
</g>
<defs>
<clipPath id="clip0_4123_10876">
<rect width="20" height="20" fill="white"/>
</clipPath>
</defs>
</svg>
